<?xml version="1.0" encoding="utf-8"?>
<!-- Generator: Adobe Illustrator 23.0.1, SVG Export Plug-In . SVG Version: 6.00 Build 0)  -->
<svg version="1.1" id="Layer_1" xmlns="http://www.w3.org/2000/svg" xmlns:xlink="http://www.w3.org/1999/xlink" x="0px" y="0px"
	 viewBox="0 0 1738.1 1738.1" style="enable-background:new 0 0 1738.1 1738.1;" xml:space="preserve">
<style type="text/css">
	.st0{fill:#EA9C55;}
	.st1{opacity:0.5;enable-background:new    ;}
	.st2{fill:#3399FF;}
	.st3{fill:#999999;}
</style>
<title>LupusEbriusLogo</title>
<g>
	<g>
		<g id="Layer_1-2">
			<circle cx="869" cy="869" r="833.6"/>
			<circle class="st0" cx="872" cy="865.7" r="775.5"/>
			<path class="st1" d="M385.5,1222c-84.3-28.3-178.1-36.8-191.4-97.5c57.8-18.1,191.4-281.7,382.8-321.4
				c117.7-148,203.6-230.8,260-249.2c32.5-8,24.4,13.5,148-42.4c87.6-103.8,179.6-148,244.6-238.3c69.5,0,65,56.9,88.5,125.5
				c0,97.9-93.9,143.5-112.8,287.1c-9.7,70.2-7.4,125.7,30.7,137.2c67.4,6.6,126.4-5.4,176.9-36.1h19.9c4.6-26.3,4.5-47.2,10.8-51.5
				c10,0.9,16.9,13.9,22.6,31.6c30.6-0.6,53.3-4.5,58.1,2.4c6.8,9.7,0.3,41.4-1.2,70.8c-6.3,55.1-39.7,61.5-79.4,76.7
				c-125.5,102-224.8,158-280.7,305.1c-6.8,51.9-12.1,107.4-39.3,107.4c0,0,0,14.2-14.9,17.6v65c9.9,15.8,9.9,31.6,0,47.4
				l-808.8-108.3C340.2,1317.1,381,1278.9,385.5,1222z"/>
			
				<image style="overflow:visible;opacity:0.65;enable-background:new    ;" width="1464" height="891" xlink:href="289B003B.png"  transform="matrix(0.9989 0 0 0.9989 142.8616 379.91)">
			</image>
			<polygon class="st2" points="1219.8,555.9 1087.6,555.9 1153.7,441.4 			"/>
			<polygon class="st2" points="1449,1064.5 1449,1177.9 933.8,1177.9 932.7,1176 882.7,1089.3 882.7,1064.5 			"/>
			<polygon class="st2" points="1515.3,1177.8 1384.6,1177.8 1449.9,1064.6 			"/>
			<polygon class="st2" points="1222.3,866.3 1091.5,866.3 1156.9,753 			"/>
			<polygon class="st2" points="1153.7,441.4 1153.7,555.9 726,555.9 791.5,441.4 			"/>
			<rect x="781.5" y="753" class="st2" width="375.4" height="113.3"/>
			<polygon class="st2" points="726.3,441.4 693.1,498.9 660.8,554.8 617.3,554.8 617.3,441.4 			"/>
			<path class="st2" d="M793.3,1048H441.9c-29.2,0-47.5-31.7-32.9-57l40-69.2l0,0c0.2-0.4,0.4-0.9,0.7-1.3l211.2-365.7l32.2-55.9
				l-11.9-20.6c-12.7-22.2-36-36.1-61.5-36.8h-2.3c-12.5,0-24.9,3.1-35.9,9.2c-11.7,6.5-21.3,16-27.9,27.6l-340.2,589.2
				c-28.3,49.1,7.1,110.5,63.8,110.5h591.1L793.3,1048z M1021.3,1067.4l-0.6-1L726,555.9l-75.8,131.2l0,0l7.3,12.5c0,0,0,0,0,0.1
				c0.3,0.4,0.5,0.7,0.7,1.1l225.4,390.3l50.1,86.7h23.8C1014.2,1177.9,1049.6,1116.5,1021.3,1067.4z"/>
			<path class="st3" d="M715.4,981.4H537.7c-10.6,0-19.2-8.6-19.3-19.2c0-3.4,0.9-6.7,2.6-9.6l88.9-154c5.3-9.2,17.1-12.4,26.3-7
				c2.9,1.7,5.3,4.1,7,7l88.8,154c5.3,9.2,2.1,21-7,26.3C722.1,980.5,718.8,981.4,715.4,981.4z"/>
			<path class="st3" d="M869,0C389.1,0,0,389.1,0,869s389.1,869.1,869,869.1S1738,1349,1738,869S1349,0,869,0z M869,1702.6
				c-460.4,0-833.6-373.2-833.6-833.6S408.7,35.5,869,35.5s833.6,373.2,833.6,833.5S1329.4,1702.6,869,1702.6z"/>
		</g>
	</g>
</g>
</svg>
